<svg xmlns="http://www.w3.org/2000/svg" viewBox="0 0 65.38 68.68" id="svg-1"><title id="title-2">serifikat</title><g id="Sloy_2" data-name="Sloy 2"><g id="Layer_1" data-name="Layer 1"><g id="Sloy_2-2" data-name="Sloy 2"><g id="Layer_1-2" data-name="Layer 1"><path d="M15.56,49.81a3.11,3.11,0,1,0,3.11,3.11,3.11,3.11,0,0,0-3.11-3.11Zm14-37.36H20.23A1.47,1.47,0,0,0,18.68,14a1.47,1.47,0,0,0,1.37,1.56h9.53A1.47,1.47,0,0,0,31.13,14a1.47,1.47,0,0,0-1.38-1.55h-.19ZM6.23,20.23A1.47,1.47,0,0,0,7.6,21.79H23.35a1.56,1.56,0,0,0,.25-3.11H7.78a1.47,1.47,0,0,0-1.55,1.55ZM38.91,24.9H20.23a1.56,1.56,0,0,0,0,3.11H38.91a1.56,1.56,0,0,0,0-3.11Zm0,6.23H28a1.56,1.56,0,0,0,0,3.11H38.9a1.56,1.56,0,0,0,0-3.11Zm0-12.45H29.57a1.56,1.56,0,0,0,0,3.11h9.34a1.56,1.56,0,0,0,0-3.11ZM7.78,28H14a1.56,1.56,0,0,0,0-3.11H7.78a1.56,1.56,0,0,0,0,3.11ZM48.25,54.48a1.47,1.47,0,0,0-1.55,1.39s0,.09,0,.13v4.7a1.47,1.47,0,0,1-1.37,1.56H24.9a1.56,1.56,0,0,0-.25,3.11H45.14a4.59,4.59,0,0,0,4.67-4.51q0-.08,0-.16V56a1.47,1.47,0,0,0-1.42-1.52ZM63.82,29l-.94-1a5.26,5.26,0,0,0-7.44,0l0,0-5.6,5.6V15.1a7.3,7.3,0,0,0-2.33-5.45L40.16,2.33A7.06,7.06,0,0,0,34.71,0h-30A4.59,4.59,0,0,0,0,4.47q0,.1,0,.2v56a4.59,4.59,0,0,0,4.51,4.67H6.23a1.56,1.56,0,0,0,.25-3.11H4.67A1.47,1.47,0,0,1,3.11,60.7V4.7A1.47,1.47,0,0,1,4.45,3.12H32.67A3.12,3.12,0,0,1,35.8,6.22h0V9.34A4.59,4.59,0,0,0,40.32,14h3.26a3.12,3.12,0,0,1,3.11,3.11V35.8c0,.31.16.47.16.78l-9,9a3.4,3.4,0,0,0-.47.78L36.13,52.9H32.69a1.56,1.56,0,0,0,0,3.11h5l7.78-1.56a.86.86,0,0,0,.78-.47L63.82,36.42a5.26,5.26,0,0,0,0-7.44l0,0ZM43.58,10.9H40.47a1.47,1.47,0,0,1-1.56-1.56V6.23a3,3,0,0,0-.16-1.09l5.76,5.76Zm-4.2,41.56.47-2.65L42,52ZM61.64,34.24l-16.5,16.5-4-4,16.5-16.5a2.37,2.37,0,0,1,3.11,0l.93.93a2.26,2.26,0,0,1,0,3.11Zm-27.4,4.67a1.47,1.47,0,0,0-1.37-1.56H20.23a1.56,1.56,0,0,0,0,3.11H32.69a1.47,1.47,0,0,0,1.55-1.55ZM7.78,34.24h14a1.56,1.56,0,0,0,0-3.11h-14a1.56,1.56,0,0,0,0,3.11Zm0,6.23H14a1.56,1.56,0,0,0,0-3.11H7.78a1.56,1.56,0,0,0,0,3.11Z" id="path-7"/><path d="M15.61,43.76A9.37,9.37,0,0,0,6.27,53.1a9.51,9.51,0,0,0,3.11,7v7A1.92,1.92,0,0,0,10,68.36a1.19,1.19,0,0,0,1.4.16l4.2-1.4,4.2,1.4c.16,0,.31.16.47.16a2.21,2.21,0,0,0,.93-.31,1.42,1.42,0,0,0,.62-1.25v-7a9.51,9.51,0,0,0,3.11-7A9.37,9.37,0,0,0,15.61,43.76Zm3.11,21.17L16.07,64a1,1,0,0,0-.93,0l-2.65.93V61.82a10.06,10.06,0,0,0,3.11.62,7,7,0,0,0,3.11-.62Zm-3.11-5.6a6.23,6.23,0,1,1,6.23-6.23h0A6.24,6.24,0,0,1,15.61,59.33Z" id="path-8" fill-opacity="1" type="solidColor" fill="#e80003"/></g></g></g></g></svg>