<svg xmlns="http://www.w3.org/2000/svg" viewBox="0 0 56.66 57.33" id="svg-1"><title id="title-2">pan2</title><g id="Sloy_2" data-name="Sloy 2"><g id="Layer_1" data-name="Layer 1"><path d="M52.65,41.9h0l0,0-2.06-2.13-4.46-4.58-6.87-7,6.17-6.4,0,0,4-4a.6.6,0,0,0,.15-.13,1.18,1.18,0,0,0,0-1.53L41.5,7.88l0,0,0,0L40.6,7a1.16,1.16,0,0,0-1.16-.2l-.08,0-.15.09A1.15,1.15,0,0,0,39,7L37,9c-.06.06-.13.1-.19.16l0,0-8.16,8-5.51-5.65L18.64,7,15.79,4.05a3.37,3.37,0,0,0-4.85,0L4,11.22a3.58,3.58,0,0,0,0,5H4L16.79,29.36l-8.06,8a1.18,1.18,0,0,0-.12.18,1.13,1.13,0,0,0,0,1.39l.1.1,8.68,9a1.14,1.14,0,0,0,1.62.1l.1-.1a1.22,1.22,0,0,0,.25-.31l8.07-7.44L31,43.89a1.07,1.07,0,0,0,.12.07l5.56,5.77,0,.06L40.82,54a3.37,3.37,0,0,0,4.85,0l7-7.16A3.58,3.58,0,0,0,52.65,41.9ZM5.58,14.53a1.19,1.19,0,0,1,0-1.65h0l7-7.16a1.11,1.11,0,0,1,1.61,0h0l2,2.1-1.1,1.13a1.2,1.2,0,0,0-.1,1.67,1.13,1.13,0,0,0,1.62.1l.1-.1,1.1-1.13,2.85,2.92-3.31,3.36a1.2,1.2,0,0,0-.1,1.67,1.13,1.13,0,0,0,1.62.1l.1-.1,3.28-3.36,2.16,2.22L26.06,18l.91.93L18.41,27.7ZM18.34,45.39l-7.06-7.31,25.93-25.8.18-.16.49-.5,2-2,3.81,3.91L32.43,25a1.2,1.2,0,0,0,.1,1.67,1.13,1.13,0,0,0,1.53,0L45.35,15.16,47,16.85l-2.39,2.4-.08.09ZM51,45.21h0l-7,7.16a1.11,1.11,0,0,1-1.61,0h0l-4.13-4.24-.09-.05-5.61-5.82,0,0L29,38.57l8.58-8.81,3,3,1.62,1.67L43.69,36l-3.28,3.36a1.2,1.2,0,0,0-.1,1.67,1.13,1.13,0,0,0,1.62.1L42,41l3.28-3.36,2.85,2.92-1.1,1.13a1.2,1.2,0,0,0,.1,1.67,1.13,1.13,0,0,0,1.53,0l1.1-1.13L51,43.56A1.19,1.19,0,0,1,51,45.21ZM16.69,48.26l-8.32-8.6a1.2,1.2,0,0,0-1.7-.07l-.09.1a1.17,1.17,0,0,0-.31.5v0l0,.14-6,14.95a1.19,1.19,0,0,0-.17,1.16l.06.12a1.2,1.2,0,0,0,1.56.68l.14-.06L16,50.47l.06,0a1.17,1.17,0,0,0,.55-.27l.1-.1a1.2,1.2,0,0,0,.07-1.7Zm-13,5.22,1.61-4L7.5,51.69Zm6.22-2.95L6.35,46.85l1.58-4,5.71,5.9ZM31,26.93a1.18,1.18,0,1,0,1.15,1.18,1.2,1.2,0,0,0-.34-.84A1.14,1.14,0,0,0,31,26.93Z" id="path-5"/><path d="M56.37,9,47.66.38l-.09,0,0,0A1.17,1.17,0,0,0,46,.27L41.62,4.66A1.16,1.16,0,0,0,41.49,6a1.22,1.22,0,0,0,.22.39l8.71,8.58.1.05s0,.05.06.07a1.17,1.17,0,0,0,1.51,0l4.31-4.48a1.13,1.13,0,0,0,.24-.63A1.19,1.19,0,0,0,56.37,9Zm-5.09,3.58L44.11,5.46,46.8,2.79l7.12,7Z" id="path-6" fill-opacity="1" type="solidColor" fill="#e80003"/></g></g></svg>