<svg xmlns="http://www.w3.org/2000/svg" viewBox="0 0 54.64 65.82" id="svg-1"><title id="title-2">Chel</title><g id="Sloy_2" data-name="Sloy 2"><g id="Layer_1" data-name="Layer 1"><g id="Sloy_2-2" data-name="Sloy 2"><g id="Layer_1-2" data-name="Layer 1"><path d="M50.26,39.29h-.08l-7.58-2-5.89-4.95V31c2.58-2.44,4.72-5.82,4.72-9.54v-8A13.86,13.86,0,0,0,27.24,0C19.37,0,13,6.06,13,13.51v8c0,3.73,2.14,7.07,4.72,9.54v1.3l-2.87,3.87-10.43,3H4.38C1.11,40.22,0,43.82,0,46.7l.2,17.56a2,2,0,0,0,2,1.56h50.3a2,2,0,0,0,2-1.55l.09-17.49C54.81,43.54,53.52,40.33,50.26,39.29ZM40,38.58l-7.59,12.7-4.4-5.84,7.78-10.78ZM27.24,3.35c3.31,0,7,2.29,8.89,4.64-1.91,2.4-5.7,3.6-8.89,3.6H16.51C17.46,7.17,22.33,3.35,27.24,3.35ZM16.32,21.47V15.41H27.24a16,16,0,0,0,10.49-3.85,9.5,9.5,0,0,1,.47,1.94v8c0,5.31-5.33,9.64-10.93,9.64S16.32,26.79,16.32,21.47Zm2.35,13.41,7.78,10.26L21,49.89,13.43,38.8Zm6.83,27.6H3.35c0-.07.1-17,.08-17.11a2.73,2.73,0,0,1,1.67-3l8.63-2.34L20,49.69a2.05,2.05,0,0,0,3.12.29l2.39-1.72ZM20.32,34.16a29.65,29.65,0,0,0,13.83,0l-6.91,11Zm31,28.2H29V48.27l2.39,2.11a2.05,2.05,0,0,0,2.88,0,2,2,0,0,0,.24-.28l6.25-10.25,9.07,2.59c1.11.36,1.63,1.12,1.65,3Z" id="path-7"/><path d="M44,53.07H39.89c-1.12,0-2,.61-2,1.67s.91,1.41,2,1.41H44c1.12,0,2-.34,2-1.41S45.09,53.07,44,53.07Z" id="path-8"/></g></g><path d="M42.85,37.25l-.15-.13-5.53-4.66a1.64,1.64,0,0,0-.44-.23,1.51,1.51,0,0,0-1.87.49l-.1.16L27.1,44.74,19.65,33.12l-.1-.16a1.48,1.48,0,0,0-1.84-.49,1.61,1.61,0,0,0-.43.23l-5.43,4.62-.15.13a1.56,1.56,0,0,0,0,2.19l.11.13a1.49,1.49,0,0,0,.17.33L19.61,53a1.56,1.56,0,0,0,1,.61,1.52,1.52,0,0,0,1.46-.39l5.12-5.3,5.12,5.24a1.56,1.56,0,0,0,1.49.4,1.59,1.59,0,0,0,1-.62l7.76-13a1.5,1.5,0,0,0,.17-.33l.11-.13A1.56,1.56,0,0,0,42.85,37.25ZM21.18,49.44,15,38.95l3-2.57,6.31,9.83Zm12-.09L30,46.1l6.42-9.92,3.07,2.59Z" id="path-9" fill-opacity="1" type="solidColor" fill="#e80003"/></g></g></svg>